# xmcd CD database file
#
# Track frame offsets:
#	187
#	45162
#	63550
#	83362
#	115087
#	134500
#	156037
#	171875
#	208600
#	220400
#
# Disc length: 3257 seconds
#
# Revision: 3
# Processed by: cddbd v1.4PL0 Copyright (c) Steve Scherf et al.
# Submitted via: CDex 1.50Beta7
#
DISCID=820cb70a
DTITLE=Quincy Jones feat. Tots Thielemans - I Never Told You
DYEAR=1900
DGENRE=Jazz
TTITLE0=What`s Going On?
TTITLE1=Velas
TTITLE2=Brown Ballad
TTITLE3=Bluesette
TTITLE4=I Never Told You
TTITLE5=Brown Soft Shoe
TTITLE6=Eyes of Love
TTITLE7=Hummin'
TTITLE8=Love Theme From "The Get Away"
TTITLE9=Theme From The Anderson Tapes
EXTD=
EXTT0=
EXTT1=
EXTT2=
EXTT3=
EXTT4=
EXTT5=
EXTT6=
EXTT7=
EXTT8=
EXTT9=
PLAYORDER=
